<svg xmlns="http://www.w3.org/2000/svg" xmlns:xlink="http://www.w3.org/1999/xlink" viewBox="0 0 841.85 341"><defs><style>.cls-1{fill:url(#linear-gradient);}.cls-2{fill:url(#linear-gradient-2);}.cls-3{fill:url(#linear-gradient-3);}.cls-4{fill:url(#linear-gradient-4);}.cls-5{fill:url(#linear-gradient-5);}.cls-6{fill:url(#linear-gradient-6);}.cls-7{fill:url(#linear-gradient-7);}</style><linearGradient id="linear-gradient" x1="146.26" y1="50.21" x2="146.26" y2="287.74" gradientUnits="userSpaceOnUse"><stop offset="0" stop-color="#253789"/><stop offset="0.3" stop-color="#3365af"/><stop offset="0.69" stop-color="#0197c0"/><stop offset="0.7" stop-color="#079ac0"/><stop offset="0.84" stop-color="#3db0c4"/><stop offset="0.94" stop-color="#5fbfc6"/><stop offset="1" stop-color="#6cc4c7"/></linearGradient><linearGradient id="linear-gradient-2" x1="343.55" y1="281.99" x2="343.55" y2="63.84" gradientTransform="matrix(1, 0, 0, -1, 0, 342)" xlink:href="#linear-gradient"/><linearGradient id="linear-gradient-3" x1="618.34" y1="281.99" x2="618.34" y2="63.84" gradientTransform="matrix(1, 0, 0, -1, 0, 342)" xlink:href="#linear-gradient"/><linearGradient id="linear-gradient-4" x1="755.66" y1="281.99" x2="755.66" y2="63.84" gradientTransform="matrix(1, 0, 0, -1, 0, 342)" xlink:href="#linear-gradient"/><linearGradient id="linear-gradient-5" x1="478.24" y1="281.99" x2="478.24" y2="63.84" gradientTransform="matrix(1, 0, 0, -1, 0, 342)" xlink:href="#linear-gradient"/><linearGradient id="linear-gradient-6" x1="36.42" y1="81.86" x2="106.42" y2="149.21" gradientTransform="matrix(1, 0, 0, -1, 0, 342)" gradientUnits="userSpaceOnUse"><stop offset="0" stop-color="#010101"/><stop offset="1" stop-color="#010101" stop-opacity="0"/></linearGradient><linearGradient id="linear-gradient-7" x1="217.26" y1="269.3" x2="190.78" y2="192" xlink:href="#linear-gradient-6"/></defs><g id="logo"><path class="cls-1" d="M227,83.66c-20.88-4.76-40.07-.83-56.45,7.78h0c-26.54,14-44.83,41.46-44.84,73.53v11a42.36,42.36,0,0,1-84.6,3.26v0h0V122.69A41.13,41.13,0,0,0,0,81.58V171c0,40.21,26.32,77.4,65.52,86.34,20.88,4.77,40.06.8,56.43-7.8h0c26.54-13.95,44.83-41.48,44.84-73.55V165a42.36,42.36,0,0,1,84.6-3.27c0-.31,0-.63,0-.94,0,.3,0,.61,0,.92v56.56a41.11,41.11,0,0,0,41.11,41.1V170C292.52,129.79,266.2,92.61,227,83.66Z"/><path class="cls-2" d="M323,170.48V122.69a41.11,41.11,0,0,1,41.1-41.11v88.9h0v47.79a41.1,41.1,0,0,1-41.1,41.1h0Z"/><path class="cls-3" d="M638.89,85.18V0a41.12,41.12,0,0,0-41.11,41.11V88.89h0v37.38h0v47.79h0v3.71h0V263a41.1,41.1,0,0,0,41.11-41.09h0V174.08h0V136.69h0V88.9h0Z"/><path class="cls-4" d="M841.85,69.34a41.11,41.11,0,0,0-41.11,41.1V146h0v30.78a45.08,45.08,0,1,1-90.15,1.34c0-.45,0-.89,0-1.34V69.34a41.1,41.1,0,0,0-41.11,41.09h0v66.35a85.8,85.8,0,0,0,131.25,73.15v4.83c0,21.4-14.49,38.55-34.66,43.93-34.62,9.24-30.69,42.3-30.69,42.3h20.31a86.18,86.18,0,0,0,86.16-86.18V111.15h0Z"/><path class="cls-5" d="M564.67,69.34A41,41,0,0,0,524.21,104a86.21,86.21,0,1,0-.65,146v40h0v51a41.11,41.11,0,0,0,41.11-41.1v-191h0ZM478.48,221.87a45.08,45.08,0,1,1,45.08-45.08h0A45.15,45.15,0,0,1,478.48,221.87Z"/></g><g id="shadows"><path class="cls-6" d="M125.71,176h0a42.36,42.36,0,0,1-84.6,3.26h0c0,42.19,30.33,83.86,80.86,70.27h0c26.54-13.95,44.83-41.45,44.84-73.52h0v-5.23h-41.1Z"/><path class="cls-7" d="M170.55,91.44h0c-26.54,14-44.83,41.46-44.84,73.53v5.81h41.1V165h0a42.36,42.36,0,0,1,84.6-3.27h0C251.35,119.52,221.09,77.85,170.55,91.44Z"/></g></svg>