<svg xmlns="http://www.w3.org/2000/svg" xmlns:xlink="http://www.w3.org/1999/xlink" viewBox="0 0 292.52 177.8"><defs><style>.cls-1{fill:url(#linear-gradient);}.cls-2{fill:url(#linear-gradient-2);}.cls-3{fill:url(#linear-gradient-3);}</style><linearGradient id="linear-gradient" x1="146.26" y1="-31.37" x2="146.26" y2="206.16" gradientUnits="userSpaceOnUse"><stop offset="0" stop-color="#253789"/><stop offset="0.3" stop-color="#3365af"/><stop offset="0.69" stop-color="#0197c0"/><stop offset="0.7" stop-color="#079ac0"/><stop offset="0.84" stop-color="#3db0c4"/><stop offset="0.94" stop-color="#5fbfc6"/><stop offset="1" stop-color="#6cc4c7"/></linearGradient><linearGradient id="linear-gradient-2" x1="36.42" y1="0.28" x2="106.42" y2="67.63" gradientTransform="matrix(1, 0, 0, -1, 0, 178.84)" gradientUnits="userSpaceOnUse"><stop offset="0" stop-color="#010101"/><stop offset="1" stop-color="#010101" stop-opacity="0"/></linearGradient><linearGradient id="linear-gradient-3" x1="217.26" y1="187.72" x2="190.78" y2="110.42" xlink:href="#linear-gradient-2"/></defs><g id="logo"><path class="cls-1" d="M227,2.08c-20.88-4.76-40.07-.83-56.45,7.78h0c-26.54,14-44.83,41.46-44.84,73.53v11a42.36,42.36,0,0,1-84.6,3.26v0h0V41.11A41.13,41.13,0,0,0,0,0V89.42c0,40.21,26.32,77.4,65.52,86.34,20.88,4.77,40.06.8,56.43-7.8h0C148.51,154,166.8,126.47,166.81,94.4v-11a42.36,42.36,0,0,1,84.6-3.27c0-.31,0-.63,0-.94,0,.3,0,.61,0,.92v56.56a41.11,41.11,0,0,0,41.11,41.1V88.42C292.52,48.21,266.2,11,227,2.08Z"/></g><g id="shadows"><path class="cls-2" d="M125.71,94.42h0a42.36,42.36,0,0,1-84.6,3.26h0c0,42.19,30.33,83.86,80.86,70.27h0C148.51,154,166.8,126.5,166.81,94.43h0V89.2h-41.1Z"/><path class="cls-3" d="M170.55,9.86h0c-26.54,14-44.83,41.46-44.84,73.53V89.2h41.1V83.42h0a42.36,42.36,0,0,1,84.6-3.27h0C251.35,37.94,221.09-3.73,170.55,9.86Z"/></g></svg>